<mxfile host="65bd71144e">
    <diagram id="AbFltsZx_v9s6gk0LV_D" name="PÃ¡gina-1">
        <mxGraphModel dx="1560" dy="618" grid="1" gridSize="10" guides="1" tooltips="1" connect="1" arrows="1" fold="1" page="1" pageScale="1" pageWidth="827" pageHeight="1169" math="0" shadow="0">
            <root>
                <mxCell id="0"/>
                <mxCell id="1" parent="0"/>
                <mxCell id="5" value="" style="edgeStyle=none;html=1;" edge="1" parent="1" target="3">
                    <mxGeometry relative="1" as="geometry">
                        <mxPoint x="800" y="110" as="sourcePoint"/>
                    </mxGeometry>
                </mxCell>
                <mxCell id="2" value="INICIO" style="ellipse;whiteSpace=wrap;html=1;fillColor=#994C00;" vertex="1" parent="1">
                    <mxGeometry x="740" y="30" width="120" height="80" as="geometry"/>
                </mxCell>
                <mxCell id="6" value="" style="edgeStyle=none;html=1;" edge="1" parent="1" source="3" target="4">
                    <mxGeometry relative="1" as="geometry"/>
                </mxCell>
                <mxCell id="3" value="X , Y" style="shape=parallelogram;perimeter=parallelogramPerimeter;whiteSpace=wrap;html=1;fixedSize=1;fillColor=#FF6666;" vertex="1" parent="1">
                    <mxGeometry x="740" y="170" width="120" height="60" as="geometry"/>
                </mxCell>
                <mxCell id="4" value="X==0&amp;nbsp;" style="rhombus;whiteSpace=wrap;html=1;fillColor=#FF99FF;" vertex="1" parent="1">
                    <mxGeometry x="760" y="300" width="80" height="80" as="geometry"/>
                </mxCell>
                <mxCell id="7" value="Y==0" style="rhombus;whiteSpace=wrap;html=1;fillColor=#FF99FF;" vertex="1" parent="1">
                    <mxGeometry x="590" y="380" width="80" height="80" as="geometry"/>
                </mxCell>
                <mxCell id="8" value="Y==0" style="rhombus;whiteSpace=wrap;html=1;fillColor=#FF99FF;" vertex="1" parent="1">
                    <mxGeometry x="990" y="380" width="80" height="80" as="geometry"/>
                </mxCell>
                <mxCell id="9" value="" style="endArrow=classic;html=1;exitX=1;exitY=0.5;exitDx=0;exitDy=0;" edge="1" parent="1" source="4" target="8">
                    <mxGeometry width="50" height="50" relative="1" as="geometry">
                        <mxPoint x="780" y="310" as="sourcePoint"/>
                        <mxPoint x="1030" y="340" as="targetPoint"/>
                        <Array as="points">
                            <mxPoint x="1030" y="340"/>
                        </Array>
                    </mxGeometry>
                </mxCell>
                <mxCell id="20" value="" style="endArrow=none;html=1;exitX=0.5;exitY=0;exitDx=0;exitDy=0;entryX=0;entryY=0.5;entryDx=0;entryDy=0;" edge="1" parent="1" source="7" target="4">
                    <mxGeometry width="50" height="50" relative="1" as="geometry">
                        <mxPoint x="780" y="310" as="sourcePoint"/>
                        <mxPoint x="830" y="260" as="targetPoint"/>
                        <Array as="points">
                            <mxPoint x="630" y="340"/>
                        </Array>
                    </mxGeometry>
                </mxCell>
                <mxCell id="21" value="FALSE" style="text;html=1;strokeColor=none;fillColor=none;align=center;verticalAlign=middle;whiteSpace=wrap;rounded=0;" vertex="1" parent="1">
                    <mxGeometry x="680" y="300" width="60" height="30" as="geometry"/>
                </mxCell>
                <mxCell id="22" value="TRUE" style="text;html=1;strokeColor=none;fillColor=none;align=center;verticalAlign=middle;whiteSpace=wrap;rounded=0;" vertex="1" parent="1">
                    <mxGeometry x="900" y="300" width="60" height="30" as="geometry"/>
                </mxCell>
                <mxCell id="24" value="Y&amp;gt;0" style="rhombus;whiteSpace=wrap;html=1;fillColor=#FF99FF;" vertex="1" parent="1">
                    <mxGeometry x="494" y="570" width="80" height="80" as="geometry"/>
                </mxCell>
                <mxCell id="25" value="X&amp;gt;0" style="rhombus;whiteSpace=wrap;html=1;fillColor=#FF99FF;" vertex="1" parent="1">
                    <mxGeometry x="414" y="460" width="80" height="80" as="geometry"/>
                </mxCell>
                <mxCell id="26" value="" style="endArrow=none;html=1;exitX=0;exitY=0.5;exitDx=0;exitDy=0;entryX=0.5;entryY=0;entryDx=0;entryDy=0;" edge="1" parent="1" source="7" target="25">
                    <mxGeometry width="50" height="50" relative="1" as="geometry">
                        <mxPoint x="690" y="570" as="sourcePoint"/>
                        <mxPoint x="740" y="520" as="targetPoint"/>
                        <Array as="points">
                            <mxPoint x="560" y="420"/>
                            <mxPoint x="454" y="420"/>
                        </Array>
                    </mxGeometry>
                </mxCell>
                <mxCell id="27" value="EJE X" style="shape=document;whiteSpace=wrap;html=1;boundedLbl=1;fillColor=#074146;" vertex="1" parent="1">
                    <mxGeometry x="690" y="460" width="120" height="80" as="geometry"/>
                </mxCell>
                <mxCell id="28" value="" style="endArrow=none;html=1;exitX=0.998;exitY=0.598;exitDx=0;exitDy=0;exitPerimeter=0;entryX=0.5;entryY=0;entryDx=0;entryDy=0;" edge="1" parent="1" source="7" target="27">
                    <mxGeometry width="50" height="50" relative="1" as="geometry">
                        <mxPoint x="690" y="570" as="sourcePoint"/>
                        <mxPoint x="740" y="520" as="targetPoint"/>
                        <Array as="points">
                            <mxPoint x="750" y="428"/>
                        </Array>
                    </mxGeometry>
                </mxCell>
                <mxCell id="29" value="Y&amp;lt;0" style="rhombus;whiteSpace=wrap;html=1;fillColor=#FF99FF;" vertex="1" parent="1">
                    <mxGeometry x="120" y="570" width="80" height="80" as="geometry"/>
                </mxCell>
                <mxCell id="30" value="CUADRANTE 1" style="shape=document;whiteSpace=wrap;html=1;boundedLbl=1;fillColor=#074146;" vertex="1" parent="1">
                    <mxGeometry x="590" y="690" width="120" height="80" as="geometry"/>
                </mxCell>
                <mxCell id="31" value="CUADRANTE 4" style="shape=document;whiteSpace=wrap;html=1;boundedLbl=1;fillColor=#074146;" vertex="1" parent="1">
                    <mxGeometry x="374" y="690" width="120" height="80" as="geometry"/>
                </mxCell>
                <mxCell id="32" value="CUADRANTE 3" style="shape=document;whiteSpace=wrap;html=1;boundedLbl=1;fillColor=#074146;" vertex="1" parent="1">
                    <mxGeometry x="220" y="690" width="120" height="80" as="geometry"/>
                </mxCell>
                <mxCell id="33" value="CUADRANTE 2" style="shape=document;whiteSpace=wrap;html=1;boundedLbl=1;fillColor=#074146;" vertex="1" parent="1">
                    <mxGeometry x="-20" y="690" width="120" height="80" as="geometry"/>
                </mxCell>
                <mxCell id="34" value="" style="endArrow=none;html=1;exitX=0.5;exitY=0;exitDx=0;exitDy=0;entryX=0;entryY=0.5;entryDx=0;entryDy=0;" edge="1" parent="1" source="29" target="25">
                    <mxGeometry width="50" height="50" relative="1" as="geometry">
                        <mxPoint x="220" y="700" as="sourcePoint"/>
                        <mxPoint x="270" y="650" as="targetPoint"/>
                        <Array as="points">
                            <mxPoint x="160" y="500"/>
                        </Array>
                    </mxGeometry>
                </mxCell>
                <mxCell id="35" value="" style="endArrow=none;html=1;exitX=1;exitY=0.5;exitDx=0;exitDy=0;entryX=0.5;entryY=0;entryDx=0;entryDy=0;" edge="1" parent="1" source="25" target="24">
                    <mxGeometry width="50" height="50" relative="1" as="geometry">
                        <mxPoint x="500" y="700" as="sourcePoint"/>
                        <mxPoint x="550" y="650" as="targetPoint"/>
                        <Array as="points">
                            <mxPoint x="534" y="500"/>
                        </Array>
                    </mxGeometry>
                </mxCell>
                <mxCell id="36" value="" style="endArrow=none;html=1;exitX=0.5;exitY=0;exitDx=0;exitDy=0;entryX=0;entryY=0.5;entryDx=0;entryDy=0;" edge="1" parent="1" source="31" target="24">
                    <mxGeometry width="50" height="50" relative="1" as="geometry">
                        <mxPoint x="500" y="700" as="sourcePoint"/>
                        <mxPoint x="550" y="650" as="targetPoint"/>
                        <Array as="points">
                            <mxPoint x="434" y="610"/>
                        </Array>
                    </mxGeometry>
                </mxCell>
                <mxCell id="37" value="" style="endArrow=none;html=1;exitX=0.5;exitY=0;exitDx=0;exitDy=0;entryX=1;entryY=0.5;entryDx=0;entryDy=0;" edge="1" parent="1" source="30" target="24">
                    <mxGeometry width="50" height="50" relative="1" as="geometry">
                        <mxPoint x="500" y="700" as="sourcePoint"/>
                        <mxPoint x="550" y="650" as="targetPoint"/>
                        <Array as="points">
                            <mxPoint x="650" y="610"/>
                        </Array>
                    </mxGeometry>
                </mxCell>
                <mxCell id="39" value="" style="endArrow=none;html=1;" edge="1" parent="1" source="30">
                    <mxGeometry width="50" height="50" relative="1" as="geometry">
                        <mxPoint x="640" y="790" as="sourcePoint"/>
                        <mxPoint x="530" y="840" as="targetPoint"/>
                        <Array as="points">
                            <mxPoint x="650" y="840"/>
                        </Array>
                    </mxGeometry>
                </mxCell>
                <mxCell id="40" value="" style="endArrow=none;html=1;entryX=0.523;entryY=0.833;entryDx=0;entryDy=0;entryPerimeter=0;" edge="1" parent="1" target="31">
                    <mxGeometry width="50" height="50" relative="1" as="geometry">
                        <mxPoint x="530" y="840" as="sourcePoint"/>
                        <mxPoint x="550" y="650" as="targetPoint"/>
                        <Array as="points">
                            <mxPoint x="437" y="840"/>
                        </Array>
                    </mxGeometry>
                </mxCell>
                <mxCell id="41" value="" style="endArrow=none;html=1;" edge="1" parent="1">
                    <mxGeometry width="50" height="50" relative="1" as="geometry">
                        <mxPoint x="534" y="840" as="sourcePoint"/>
                        <mxPoint x="534" y="960" as="targetPoint"/>
                    </mxGeometry>
                </mxCell>
                <mxCell id="42" value="" style="endArrow=none;html=1;exitX=1;exitY=0.5;exitDx=0;exitDy=0;entryX=0.5;entryY=0;entryDx=0;entryDy=0;" edge="1" parent="1" source="29" target="32">
                    <mxGeometry width="50" height="50" relative="1" as="geometry">
                        <mxPoint x="280" y="710" as="sourcePoint"/>
                        <mxPoint x="330" y="660" as="targetPoint"/>
                        <Array as="points">
                            <mxPoint x="280" y="610"/>
                        </Array>
                    </mxGeometry>
                </mxCell>
                <mxCell id="43" value="" style="endArrow=none;html=1;exitX=0;exitY=0.5;exitDx=0;exitDy=0;entryX=0.5;entryY=0;entryDx=0;entryDy=0;" edge="1" parent="1" source="29" target="33">
                    <mxGeometry width="50" height="50" relative="1" as="geometry">
                        <mxPoint x="280" y="710" as="sourcePoint"/>
                        <mxPoint x="330" y="660" as="targetPoint"/>
                        <Array as="points">
                            <mxPoint x="40" y="610"/>
                        </Array>
                    </mxGeometry>
                </mxCell>
                <mxCell id="44" value="" style="endArrow=none;html=1;exitX=0.497;exitY=0.863;exitDx=0;exitDy=0;exitPerimeter=0;" edge="1" parent="1" source="33">
                    <mxGeometry width="50" height="50" relative="1" as="geometry">
                        <mxPoint x="150" y="810" as="sourcePoint"/>
                        <mxPoint x="160" y="840" as="targetPoint"/>
                        <Array as="points">
                            <mxPoint x="40" y="810"/>
                            <mxPoint x="40" y="840"/>
                        </Array>
                    </mxGeometry>
                </mxCell>
                <mxCell id="45" value="" style="endArrow=none;html=1;entryX=0.507;entryY=0.863;entryDx=0;entryDy=0;entryPerimeter=0;" edge="1" parent="1" target="32">
                    <mxGeometry width="50" height="50" relative="1" as="geometry">
                        <mxPoint x="160" y="840" as="sourcePoint"/>
                        <mxPoint x="290" y="780" as="targetPoint"/>
                        <Array as="points">
                            <mxPoint x="280" y="840"/>
                        </Array>
                    </mxGeometry>
                </mxCell>
                <mxCell id="46" value="" style="endArrow=none;html=1;" edge="1" parent="1">
                    <mxGeometry width="50" height="50" relative="1" as="geometry">
                        <mxPoint x="160" y="840" as="sourcePoint"/>
                        <mxPoint x="770" y="960" as="targetPoint"/>
                        <Array as="points">
                            <mxPoint x="160" y="960"/>
                        </Array>
                    </mxGeometry>
                </mxCell>
                <mxCell id="47" value="" style="endArrow=none;html=1;exitX=0.52;exitY=0.843;exitDx=0;exitDy=0;exitPerimeter=0;" edge="1" parent="1" source="27">
                    <mxGeometry width="50" height="50" relative="1" as="geometry">
                        <mxPoint x="750" y="550" as="sourcePoint"/>
                        <mxPoint x="750" y="961.2000122070312" as="targetPoint"/>
                    </mxGeometry>
                </mxCell>
                <mxCell id="48" value="Eje Y" style="shape=document;whiteSpace=wrap;html=1;boundedLbl=1;fillColor=#074146;" vertex="1" parent="1">
                    <mxGeometry x="870" y="460" width="120" height="80" as="geometry"/>
                </mxCell>
                <mxCell id="49" value="ORIGEN" style="shape=document;whiteSpace=wrap;html=1;boundedLbl=1;fillColor=#074146;" vertex="1" parent="1">
                    <mxGeometry x="1080" y="460" width="120" height="80" as="geometry"/>
                </mxCell>
                <mxCell id="50" value="" style="endArrow=none;html=1;exitX=0.5;exitY=0;exitDx=0;exitDy=0;entryX=0;entryY=0.5;entryDx=0;entryDy=0;" edge="1" parent="1" source="48" target="8">
                    <mxGeometry width="50" height="50" relative="1" as="geometry">
                        <mxPoint x="1010" y="490" as="sourcePoint"/>
                        <mxPoint x="1060" y="440" as="targetPoint"/>
                        <Array as="points">
                            <mxPoint x="930" y="420"/>
                        </Array>
                    </mxGeometry>
                </mxCell>
                <mxCell id="51" value="" style="endArrow=none;html=1;exitX=1;exitY=0.5;exitDx=0;exitDy=0;entryX=0.57;entryY=-0.027;entryDx=0;entryDy=0;entryPerimeter=0;" edge="1" parent="1" source="8" target="49">
                    <mxGeometry width="50" height="50" relative="1" as="geometry">
                        <mxPoint x="1010" y="490" as="sourcePoint"/>
                        <mxPoint x="1060" y="440" as="targetPoint"/>
                        <Array as="points">
                            <mxPoint x="1148" y="420"/>
                        </Array>
                    </mxGeometry>
                </mxCell>
                <mxCell id="54" value="" style="endArrow=none;html=1;" edge="1" parent="1">
                    <mxGeometry width="50" height="50" relative="1" as="geometry">
                        <mxPoint x="930" y="530" as="sourcePoint"/>
                        <mxPoint x="1030" y="600" as="targetPoint"/>
                        <Array as="points">
                            <mxPoint x="930" y="600"/>
                        </Array>
                    </mxGeometry>
                </mxCell>
                <mxCell id="55" value="" style="endArrow=none;html=1;entryX=0.59;entryY=0.798;entryDx=0;entryDy=0;entryPerimeter=0;" edge="1" parent="1" target="49">
                    <mxGeometry width="50" height="50" relative="1" as="geometry">
                        <mxPoint x="1030" y="600" as="sourcePoint"/>
                        <mxPoint x="1160" y="550" as="targetPoint"/>
                        <Array as="points">
                            <mxPoint x="1150" y="600"/>
                        </Array>
                    </mxGeometry>
                </mxCell>
                <mxCell id="56" value="" style="endArrow=none;html=1;" edge="1" parent="1">
                    <mxGeometry width="50" height="50" relative="1" as="geometry">
                        <mxPoint x="767.599853515625" y="960" as="sourcePoint"/>
                        <mxPoint x="1030" y="600" as="targetPoint"/>
                        <Array as="points">
                            <mxPoint x="1030" y="960"/>
                        </Array>
                    </mxGeometry>
                </mxCell>
                <mxCell id="57" value="" style="endArrow=none;html=1;" edge="1" parent="1" target="58">
                    <mxGeometry width="50" height="50" relative="1" as="geometry">
                        <mxPoint x="800" y="960" as="sourcePoint"/>
                        <mxPoint x="800" y="1030" as="targetPoint"/>
                    </mxGeometry>
                </mxCell>
                <mxCell id="58" value="FIN" style="ellipse;whiteSpace=wrap;html=1;fillColor=#994C00;" vertex="1" parent="1">
                    <mxGeometry x="740" y="1000" width="120" height="80" as="geometry"/>
                </mxCell>
                <mxCell id="60" value="FALSE" style="text;html=1;strokeColor=none;fillColor=none;align=center;verticalAlign=middle;whiteSpace=wrap;rounded=0;" vertex="1" parent="1">
                    <mxGeometry x="514" y="390" width="60" height="30" as="geometry"/>
                </mxCell>
                <mxCell id="61" value="FALSE" style="text;html=1;strokeColor=none;fillColor=none;align=center;verticalAlign=middle;whiteSpace=wrap;rounded=0;" vertex="1" parent="1">
                    <mxGeometry x="330" y="470" width="60" height="30" as="geometry"/>
                </mxCell>
                <mxCell id="62" value="FALSE" style="text;html=1;strokeColor=none;fillColor=none;align=center;verticalAlign=middle;whiteSpace=wrap;rounded=0;" vertex="1" parent="1">
                    <mxGeometry x="60" y="580" width="60" height="30" as="geometry"/>
                </mxCell>
                <mxCell id="63" value="FALSE" style="text;html=1;strokeColor=none;fillColor=none;align=center;verticalAlign=middle;whiteSpace=wrap;rounded=0;" vertex="1" parent="1">
                    <mxGeometry x="440" y="580" width="60" height="30" as="geometry"/>
                </mxCell>
                <mxCell id="64" value="FALSE" style="text;html=1;strokeColor=none;fillColor=none;align=center;verticalAlign=middle;whiteSpace=wrap;rounded=0;" vertex="1" parent="1">
                    <mxGeometry x="940" y="390" width="60" height="30" as="geometry"/>
                </mxCell>
                <mxCell id="65" value="TRUE" style="text;html=1;strokeColor=none;fillColor=none;align=center;verticalAlign=middle;whiteSpace=wrap;rounded=0;" vertex="1" parent="1">
                    <mxGeometry x="1070" y="390" width="60" height="30" as="geometry"/>
                </mxCell>
                <mxCell id="66" value="TRUE" style="text;html=1;strokeColor=none;fillColor=none;align=center;verticalAlign=middle;whiteSpace=wrap;rounded=0;" vertex="1" parent="1">
                    <mxGeometry x="690" y="405" width="60" height="30" as="geometry"/>
                </mxCell>
                <mxCell id="67" value="TRUE" style="text;html=1;strokeColor=none;fillColor=none;align=center;verticalAlign=middle;whiteSpace=wrap;rounded=0;" vertex="1" parent="1">
                    <mxGeometry x="490" y="470" width="60" height="30" as="geometry"/>
                </mxCell>
                <mxCell id="69" value="TRUE" style="text;html=1;strokeColor=none;fillColor=none;align=center;verticalAlign=middle;whiteSpace=wrap;rounded=0;" vertex="1" parent="1">
                    <mxGeometry x="580" y="580" width="60" height="30" as="geometry"/>
                </mxCell>
                <mxCell id="70" value="TRUE" style="text;html=1;strokeColor=none;fillColor=none;align=center;verticalAlign=middle;whiteSpace=wrap;rounded=0;" vertex="1" parent="1">
                    <mxGeometry x="220" y="580" width="60" height="30" as="geometry"/>
                </mxCell>
            </root>
        </mxGraphModel>
    </diagram>
</mxfile>